#!OML:ASF F:\VICON\USERDATA\INSTALL\rory3\rory3.ASF
:FULLY-SPECIFIED
:DEGREES
77
root 0.99089 17.9185 -13.6495 -1.03732 -5.64667 -4.49464
lowerback 8.38649 2.63233 4.80945
upperback -0.310204 4.05005 1.37354
thorax -4.79389 1.89813 -1.75869
lowerneck -16.252 -3.0291 -1.45551
upperneck 22.2353 -3.89499 0.193014
head 9.76653 -1.90585 -0.199808
rclavicle -1.91951e-015 3.97569e-015
rhumerus -24.5337 -12.3423 -81.7636
rradius 27.6697
rwrist 2.58711
rhand -20.068 22.674
rfingers 7.12502
rthumb 6.27416 -7.21312
lclavicle -1.91951e-015 3.97569e-015
lhumerus -39.3199 10.0176 79.6928
lradius 18.1204
lwrist -0.638948
lhand -27.0395 18.0075
lfingers 7.12502
lthumb -0.458255 47.9868
rfemur 11.8908 6.22616 29.7643
rtibia 32.9919
rfoot -7.956 -1.7821
rtoes -9.70342
lfemur -22.2772 -3.74249 -14.9443
ltibia 16.2902
lfoot 3.03203 0.129308
ltoes -3.03542
78
root 1.00502 17.9369 -13.4327 -1.2423 -5.13884 -3.95891
lowerback 8.28328 2.5097 4.32219
upperback -0.22472 3.82266 1.23144
thorax -4.68101 1.8005 -1.60149
lowerneck -16.4385 -3.17767 -1.53804
upperneck 22.3796 -4.07772 0.184684
head 9.85618 -1.99683 -0.218071
rclavicle -1.56916e-014 -1.82882e-014
rhumerus -25.08 -13.2273 -81.5411
rradius 27.6971
rwrist 2.94435
rhand -20.0019 22.4132
rfingers 7.12502
rthumb 6.33797 -7.47195
lclavicle -1.56916e-014 -1.82882e-014
lhumerus -39.1052 10.5861 79.3032
lradius 17.6116
lwrist -1.50791
lhand -26.7474 18.2966
lfingers 7.12502
lthumb -0.176166 48.2763
rfemur 11.3249 5.60414 28.9642
rtibia 35.0348
rfoot -5.65264 -1.38877
rtoes -6.55705
lfemur -21.7375 -3.37436 -15.9702
ltibia 16.849
lfoot 3.19005 -0.691853
ltoes -4.69314
79
root 1.02585 17.9371 -13.2231 -1.26242 -4.57764 -3.93896
lowerback 8.24652 2.28736 4.44632
upperback -0.290057 3.53853 1.2127
thorax -4.73611 1.65471 -1.65772
lowerneck -16.4507 -3.20589 -1.59075
upperneck 22.4154 -4.10019 0.171689
head 9.8724 -2.01317 -0.217512
rclavicle 1.52723e-014 -1.0138e-014
rhumerus -25.591 -13.9735 -81.3308
rradius 27.5421
rwrist 3.23037
rhand -19.9955 22.041
rfingers 7.12502
rthumb 6.34416 -7.844
lclavicle 1.52723e-014 -1.0138e-014
lhumerus -39.1529 11.1603 78.8633
lradius 17.3916
lwrist -2.28777
lhand -26.1856 19.8306
lfingers 7.12502
lthumb 0.366471 49.81
rfemur 10.5763 4.88493 28.6549
rtibia 36.9296
rfoot -2.34679 -0.701458
rtoes -6.38549
lfemur -21.8326 -3.21326 -16.2971
ltibia 17.8721
lfoot 2.94931 -1.09238
ltoes -6.62336
80
root 1.04572 17.9646 -13.0115 -1.32685 -4.19089 -4.08755
lowerback 8.1846 2.14269 4.67356
upperback -0.309031 3.36879 1.28815
thorax -4.72304 1.56624 -1.68414
lowerneck -16.4929 -3.14509 -1.63739
upperneck 22.4183 -4.02256 0.255182
head 9.88375 -1.97121 -0.17112
rclavicle 1.75055e-014 1.25234e-014
rhumerus -26.0147 -14.7092 -80.9653
rradius 27.2274
rwrist 3.57541
rhand -19.8878 21.5846
rfingers 7.12502
rthumb 6.44818 -8.29724
lclavicle 1.75055e-014 1.25234e-014
lhumerus -39.089 11.742 78.5216
lradius 17.0931
lwrist -3.27855
lhand -25.8344 21.241
lfingers 7.12502
lthumb 0.70569 51.2195
rfemur 9.76053 4.49469 28.6217
rtibia 38.7464
rfoot 1.26558 -0.019368
rtoes -5.75943
lfemur -21.5904 -2.83562 -16.4329
ltibia 18.7879
lfoot 2.27638 -1.53819
ltoes -3.73498
81
root 1.0636 18.0141 -12.7998 -1.49774 -4.07138 -4.13371
lowerback 8.25363 2.13074 4.78308
upperback -0.296212 3.36816 1.30772
thorax -4.74372 1.56302 -1.7276
lowerneck -16.7344 -3.12057 -1.61678
upperneck 22.6232 -3.99687 0.272504
head 10.002 -1.95323 -0.171348
rclavicle -2.57799e-014 -1.0635e-014
rhumerus -26.6585 -15.4627 -80.6111
rradius 27.0383
rwrist 3.92107
rhand -19.5265 22.2658
rfingers 7.12502
rthumb 6.79697 -7.60505
lclavicle -2.57799e-014 -1.0635e-014
lhumerus -39.0797 11.3406 78.7359
lradius 17.3998
lwrist -3.31867
lhand -25.4572 23.4285
lfingers 7.12502
lthumb 1.07001 53.4055
rfemur 8.96785 4.42038 28.4974
rtibia 40.6215
rfoot 4.63832 0.766154
rtoes -3.27473
lfemur -20.8638 -2.30285 -16.7084
ltibia 19.3839
lfoot 1.54103 -2.20769
ltoes -3.89266
82
root 1.08555 18.0438 -12.5921 -1.57998 -3.90978 -3.82563
lowerback 8.2229 2.10691 4.54943
upperback -0.34824 3.31037 1.22944
thorax -4.79242 1.53752 -1.67217
lowerneck -16.7203 -3.11696 -1.53706
upperneck 22.7416 -4.011 0.251637
head 10.0395 -1.95489 -0.194748
rclavicle 3.75765e-014 2.08724e-015
rhumerus -27.269 -16.2311 -80.2926
rradius 26.8455
rwrist 4.35565
rhand -19.067 22.6955
rfingers 7.12502
rthumb 7.24043 -7.1606
lclavicle 3.75765e-014 2.08724e-015
lhumerus -39.2161 11.1595 78.7485
lradius 17.428
lwrist -2.95766
lhand -25.7602 21.787
lfingers 7.12502
lthumb 0.777343 51.7654
rfemur 8.01588 4.34239 27.9318
rtibia 42.6068
rfoot 7.26819 1.29182
rtoes -0.283877
lfemur -20.2357 -2.06505 -17.3381
ltibia 19.7399
lfoot 0.95982 -2.84151
ltoes -3.26628
83
root 1.10488 18.0699 -12.3955 -1.66143 -3.80856 -3.35128
lowerback 8.29054 2.06702 4.09001
upperback -0.416816 3.21427 1.13336
thorax -4.92669 1.49654 -1.50979
lowerneck -16.4658 -3.1651 -1.53714
upperneck 22.5873 -4.06678 0.195558
head 9.93546 -1.9896 -0.215749
rclavicle -4.60683e-014 -3.67752e-015
rhumerus -27.7594 -16.9946 -79.9578
rradius 26.6175
rwrist 4.60025
rhand -17.277 8.60333
rfingers 7.12502
rthumb 8.96804 -21.1861
lclavicle -4.60683e-014 -3.67752e-015
lhumerus -39.2947 11.1616 78.6991
lradius 17.5575
lwrist -2.95218
lhand -25.215 22.2786
lfingers 7.12502
lthumb 1.30393 52.2543
rfemur 6.82616 4.38479 27.2387
rtibia 44.8244
rfoot 9.94135 1.42241
rtoes 2.83549
lfemur -19.4627 -1.98863 -18.068
ltibia 19.6669
lfoot 0.505601 -3.2403
ltoes -2.07303
84
root 1.11841 18.0994 -12.207 -1.81171 -3.81195 -3.05721
lowerback 8.57535 2.03685 3.79749
upperback -0.459157 3.1587 1.08543
thorax -5.14718 1.4706 -1.40361
lowerneck -16.3461 -3.25559 -1.67879
upperneck 22.5007 -4.14878 0.166485
head 9.8856 -2.04432 -0.210339
rclavicle 1.30064e-014 -8.64713e-015
rhumerus -28.2444 -17.4553 -79.703
rradius 26.3227
rwrist 4.70928
rhand -16.8115 9.86249
rfingers 7.12502
rthumb 9.41721 -19.9071
lclavicle 1.30064e-014 -8.64713e-015
lhumerus -39.2364 10.9456 78.8516
lradius 17.7418
lwrist -2.54419
lhand -25.4743 21.7784
lfingers 7.12502
lthumb 1.05352 51.7555
rfemur 5.50665 4.64035 26.8465
rtibia 47.2561
rfoot 12.6086 1.1284
rtoes 5.24907
lfemur -18.3875 -1.9644 -18.5373
ltibia 19.169
lfoot 0.353197 -3.17556
ltoes -2.58126
85
root 1.13133 18.1268 -12.0171 -1.92709 -3.71275 -2.58347
lowerback 8.63788 1.9814 3.32591
upperback -0.38175 3.0326 1.00027
thorax -5.12624 1.4212 -1.21432
lowerneck -16.6558 -3.24464 -1.82508
upperneck 22.5798 -4.10995 0.252047
head 9.97751 -2.02689 -0.157577
rclavicle 8.79312e-015 -1.61016e-014
rhumerus -28.4283 -17.6759 -79.5477
rradius 25.8887
rwrist 5.3055
rhand -16.9266 16.1006
rfingers 7.12502
rthumb 9.30613 -13.674
lclavicle 8.79312e-015 -1.61016e-014
lhumerus -38.9971 10.4906 79.2024
lradius 18.0128
lwrist -1.88506
lhand -25.6423 21.2989
lfingers 7.12502
lthumb 0.89123 51.2768
rfemur 4.07452 4.73091 26.2297
rtibia 49.7771
rfoot 14.8535 1.02905
rtoes 5.31756
lfemur -17.4668 -2.12854 -19.1855
ltibia 18.7182
lfoot 0.476742 -2.91566
ltoes -2.16848
86
root 1.14644 18.1397 -11.827 -2.00872 -3.84419 -2.03514
lowerback 8.66405 2.02361 2.78393
upperback -0.322382 3.0258 0.869116
thorax -5.09901 1.43159 -1.0468
lowerneck -17.0277 -3.20872 -1.82516
upperneck 22.6966 -4.07506 0.334789
head 10.0911 -1.99843 -0.13169
rclavicle 1.09301e-014 -1.55052e-014
rhumerus -28.6585 -17.9483 -79.4248
rradius 25.5504
rwrist 5.96056
rhand -17.6907 26.4736
rfingers 7.12502
rthumb 8.56885 -3.33251
lclavicle 1.09301e-014 -1.55052e-014
lhumerus -38.6076 9.8703 79.6116
lradius 18.1089
lwrist -1.07974
lhand -25.5602 21.026
lfingers 7.12502
lthumb 0.970509 51.0035
rfemur 2.64257 4.99553 25.5107
rtibia 52.2554
rfoot 16.6422 1.045
rtoes 8.03107
lfemur -16.7473 -2.23139 -19.8956
ltibia 18.5443
lfoot 0.465037 -2.70235
ltoes -1.49086
87
root 1.15894 18.1576 -11.6358 -2.06503 -4.09936 -1.67408
lowerback 8.71072 2.15689 2.45284
upperback -0.306787 3.16228 0.711678
thorax -5.11253 1.50553 -1.0441
lowerneck -17.0087 -3.23337 -1.66585
upperneck 22.5055 -4.16537 0.386139
head 10.0172 -2.02119 -0.150091
rclavicle -3.36288e-014 -2.41523e-014
rhumerus -29.0009 -18.3378 -79.3751
rradius 25.4265
rwrist 5.89261
rhand -17.9401 24.0028
rfingers 7.12502
rthumb 8.32815 -5.81302
lclavicle -3.36288e-014 -2.41523e-014
lhumerus -38.2577 8.94145 79.9578
lradius 18.33
lwrist -0.259428
lhand -25.6686 20.8439
lfingers 7.12502
lthumb 0.865853 50.8219
rfemur 1.24831 5.4177 25.0637
rtibia 54.6369
rfoot 17.1679 0.499564
rtoes 12.5421
lfemur -15.9153 -1.98877 -20.4506
ltibia 18.4249
lfoot 0.202983 -2.65333
ltoes -0.373001
88
root 1.16565 18.1838 -11.454 -2.1164 -3.94343 -1.37933
lowerback 8.8868 2.15534 2.20891
upperback -0.294161 3.13239 0.569469
thorax -5.2042 1.49388 -1.05932
lowerneck -16.9818 -3.32179 -1.60737
upperneck 22.2292 -4.31937 0.456024
head 9.91537 -2.08066 -0.152886
rclavicle 1.86361e-015 -1.98785e-016
rhumerus -29.191 -18.5352 -79.4757
rradius 25.4864
rwrist 5.12871
rhand -17.6159 19.5565
rfingers 7.12502
rthumb 8.64101 -10.2466
lclavicle 1.86361e-015 -1.98785e-016
lhumerus -37.974 7.69258 80.4911
lradius 18.8699
lwrist 0.707176
lhand -26.0723 21.6308
lfingers 7.12502
lthumb 0.475927 51.61
rfemur -0.0828344 5.33723 24.6986
rtibia 56.8353
rfoot 15.9171 -0.299887
rtoes 11.4324
lfemur -15.1592 -1.93221 -20.9758
ltibia 18.6049
lfoot -0.351416 -2.64127
ltoes 0.0349252
89
root 1.17689 18.1999 -11.2775 -2.16793 -3.62728 -0.772152
lowerback 9.14883 1.99832 1.53271
upperback -0.359674 2.85453 0.488241
thorax -5.45763 1.37033 -0.742049
lowerneck -16.9408 -3.2997 -1.70233
upperneck 22.0257 -4.24801 0.410359
head 9.83578 -2.06258 -0.140628
rclavicle -2.64259e-014 3.57812e-015
rhumerus -29.41 -18.3211 -79.4506
rradius 25.2238
rwrist 4.84962
rhand -17.5563 16.6563
rfingers 7.12502
rthumb 8.69853 -13.1444
lclavicle -2.64259e-014 3.57812e-015
lhumerus -37.8982 7.19797 80.8193
lradius 19.3883
lwrist 1.25946
lhand -26.3181 21.2555
lfingers 7.12502
lthumb 0.238544 51.2351
rfemur -1.39674 4.95081 23.8999
rtibia 58.9297
rfoot 13.7259 -1.14915
rtoes 8.05947
lfemur -14.6733 -2.17678 -21.8422
ltibia 19.0986
lfoot -0.980988 -2.34131
ltoes -0.981346
